<?xml version="1.0" encoding="UTF-8" standalone="no"?>
<!-- Generator: Adobe Illustrator 19.2.1, SVG Export Plug-In . SVG Version: 6.00 Build 0)  -->

<svg
   xmlns:dc="http://purl.org/dc/elements/1.1/"
   xmlns:cc="http://creativecommons.org/ns#"
   xmlns:rdf="http://www.w3.org/1999/02/22-rdf-syntax-ns#"
   xmlns:svg="http://www.w3.org/2000/svg"
   xmlns="http://www.w3.org/2000/svg"
   version="1.1"
   x="0px"
   y="0px"
   viewBox="0 0 20 20.000001"
   enable-background="new 0 0 283.465 283.632"
   xml:space="preserve"
   id="svg2"
   width="20"
   height="20">
  <g
     id="bkg"
     transform="translate(0,-263.63199)" /><g
     id="picto"
     transform="matrix(0.07055571,0,0,0.07055571,-9.5367443e-7,-0.00592807)"><g
       id="g6"><path
         d="M 141.726,0.084 C 63.461,0.084 0,63.538 0,141.81 c 0,78.27 63.461,141.738 141.726,141.738 78.289,0 141.738,-63.469 141.738,-141.738 C 283.465,63.538 220.015,0.084 141.726,0.084 Z m -0.01,244.806 c -56.91,0 -103.058,-46.138 -103.058,-103.064 0,-56.914 46.148,-103.052 103.058,-103.052 56.932,0 103.058,46.138 103.058,103.052 0.001,56.926 -46.126,103.064 -103.058,103.064 z"
         id="path8"
         style="fill:#007ac9" /><path
         d="m 175.66,102.489 c -7.114,7.015 -14.204,14.053 -21.308,21.067 0,-16.218 0,-32.446 0,-48.638 0,-16.28 -25.226,-16.28 -25.226,0 0,26.044 0,52.113 0,78.143 -0.013,0.625 0.024,1.235 0.115,1.847 0.432,5.47 3.83,8.935 8.056,10.321 3.985,1.77 8.733,1.542 12.82,-2.138 0.138,-0.115 0.264,-0.215 0.406,-0.344 0.039,-0.024 0.089,-0.05 0.115,-0.088 14.28,-14.118 28.573,-28.221 42.84,-42.35 11.61,-11.429 -6.235,-29.263 -17.818,-17.82 z"
         id="path10"
         style="fill:#007ac9" /></g>
</g></svg>
